<svg width="74" height="74" viewBox="0 0 74 74" fill="none" xmlns="http://www.w3.org/2000/svg">
<circle cx="37" cy="37" r="35.5" stroke="#F07F0E" stroke-width="3"/>
<path d="M28.26 50V46.868L38.268 37.364C39.108 36.572 39.732 35.876 40.14 35.276C40.548 34.676 40.812 34.124 40.932 33.62C41.076 33.092 41.148 32.6 41.148 32.144C41.148 30.992 40.752 30.104 39.96 29.48C39.168 28.832 38.004 28.508 36.468 28.508C35.244 28.508 34.128 28.724 33.12 29.156C32.136 29.588 31.284 30.248 30.564 31.136L27.288 28.616C28.272 27.296 29.592 26.276 31.248 25.556C32.928 24.812 34.8 24.44 36.864 24.44C38.688 24.44 40.272 24.74 41.616 25.34C42.984 25.916 44.028 26.744 44.748 27.824C45.492 28.904 45.864 30.188 45.864 31.676C45.864 32.492 45.756 33.308 45.54 34.124C45.324 34.916 44.916 35.756 44.316 36.644C43.716 37.532 42.84 38.528 41.688 39.632L33.084 47.804L32.112 46.04H46.836V50H28.26Z" fill="#F07F0E"/>
</svg>
