<svg width="120" height="120" viewBox="0 0 120 120" fill="none" xmlns="http://www.w3.org/2000/svg">
<path d="M118.378 60C118.378 92.3101 92.2129 118.5 59.9392 118.5C27.6656 118.5 1.5 92.3101 1.5 60C1.5 27.6899 27.6656 1.5 59.9392 1.5C92.2129 1.5 118.378 27.6899 118.378 60Z" stroke="#F07F0E" stroke-width="3"/>
<path d="M43.1985 83V77.432L60.9905 60.536C62.4838 59.128 63.5932 57.8907 64.3185 56.824C65.0438 55.7573 65.5132 54.776 65.7265 53.88C65.9825 52.9413 66.1105 52.0667 66.1105 51.256C66.1105 49.208 65.4065 47.6293 63.9985 46.52C62.5905 45.368 60.5212 44.792 57.7905 44.792C55.6145 44.792 53.6305 45.176 51.8385 45.944C50.0892 46.712 48.5745 47.8853 47.2945 49.464L41.4705 44.984C43.2198 42.6373 45.5665 40.824 48.5105 39.544C51.4972 38.2213 54.8252 37.56 58.4945 37.56C61.7372 37.56 64.5532 38.0933 66.9425 39.16C69.3745 40.184 71.2305 41.656 72.5105 43.576C73.8332 45.496 74.4945 47.7787 74.4945 50.424C74.4945 51.8747 74.3025 53.3253 73.9185 54.776C73.5345 56.184 72.8092 57.6773 71.7425 59.256C70.6758 60.8347 69.1185 62.6053 67.0705 64.568L51.7745 79.096L50.0465 75.96H76.2225V83H43.1985Z" fill="#F07F0E"/>
</svg>
