<svg width="74" height="74" viewBox="0 0 74 74" fill="none" xmlns="http://www.w3.org/2000/svg">
<circle cx="37" cy="37" r="35.5" stroke="#F07F0E" stroke-width="3"/>
<path d="M36.504 50.36C34.728 50.36 32.988 50.108 31.284 49.604C29.604 49.076 28.188 48.356 27.036 47.444L29.052 43.808C29.964 44.552 31.068 45.152 32.364 45.608C33.66 46.064 35.016 46.292 36.432 46.292C38.112 46.292 39.42 45.956 40.356 45.284C41.292 44.588 41.76 43.652 41.76 42.476C41.76 41.324 41.328 40.412 40.464 39.74C39.6 39.068 38.208 38.732 36.288 38.732H33.984V35.528L41.184 26.96L41.796 28.724H28.26V24.8H45.432V27.932L38.232 36.5L35.784 35.06H37.188C40.284 35.06 42.6 35.756 44.136 37.148C45.696 38.516 46.476 40.28 46.476 42.44C46.476 43.856 46.116 45.164 45.396 46.364C44.676 47.564 43.572 48.536 42.084 49.28C40.62 50 38.76 50.36 36.504 50.36Z" fill="#F07F0E"/>
</svg>
