<svg width="120" height="120" viewBox="0 0 120 120" fill="none" xmlns="http://www.w3.org/2000/svg">
<path d="M118.378 60C118.378 92.3101 92.2129 118.5 59.9392 118.5C27.6656 118.5 1.5 92.3101 1.5 60C1.5 27.6899 27.6656 1.5 59.9392 1.5C92.2129 1.5 118.378 27.6899 118.378 60Z" stroke="#F07F0E" stroke-width="3"/>
<path d="M57.8545 83.64C54.6972 83.64 51.6038 83.192 48.5745 82.296C45.5878 81.3573 43.0705 80.0773 41.0225 78.456L44.6065 71.992C46.2278 73.3147 48.1905 74.3813 50.4945 75.192C52.7985 76.0027 55.2092 76.408 57.7265 76.408C60.7132 76.408 63.0385 75.8107 64.7025 74.616C66.3665 73.3787 67.1985 71.7147 67.1985 69.624C67.1985 67.576 66.4305 65.9547 64.8945 64.76C63.3585 63.5653 60.8838 62.968 57.4705 62.968H53.3745V57.272L66.1745 42.04L67.2625 45.176H43.1985V38.2H73.7265V43.768L60.9265 59L56.5745 56.44H59.0705C64.5745 56.44 68.6918 57.6773 71.4225 60.152C74.1958 62.584 75.5825 65.72 75.5825 69.56C75.5825 72.0773 74.9425 74.4027 73.6625 76.536C72.3825 78.6693 70.4198 80.3973 67.7745 81.72C65.1718 83 61.8652 83.64 57.8545 83.64Z" fill="#F07F0E"/>
</svg>
