<svg width="188" height="43" viewBox="0 0 188 43" fill="none" xmlns="http://www.w3.org/2000/svg">
<path d="M79.144 16L84.76 3.4H87.64L93.274 16H90.214L85.606 4.876H86.758L82.132 16H79.144ZM81.952 13.3L82.726 11.086H89.206L89.998 13.3H81.952ZM94.7289 16V6.316H99.6789C100.891 6.316 101.839 6.538 102.523 6.982C103.207 7.414 103.549 8.026 103.549 8.818C103.549 9.61 103.225 10.234 102.577 10.69C101.941 11.134 101.095 11.356 100.039 11.356L100.327 10.708C101.503 10.708 102.379 10.924 102.955 11.356C103.543 11.788 103.837 12.418 103.837 13.246C103.837 14.098 103.513 14.77 102.865 15.262C102.217 15.754 101.227 16 99.8949 16H94.7289ZM97.3029 14.092H99.6609C100.177 14.092 100.561 14.008 100.813 13.84C101.077 13.66 101.209 13.39 101.209 13.03C101.209 12.658 101.089 12.388 100.849 12.22C100.609 12.04 100.231 11.95 99.7149 11.95H97.3029V14.092ZM97.3029 10.294H99.4269C99.9189 10.294 100.285 10.204 100.525 10.024C100.777 9.844 100.903 9.586 100.903 9.25C100.903 8.902 100.777 8.644 100.525 8.476C100.285 8.308 99.9189 8.224 99.4269 8.224H97.3029V10.294ZM107.996 16V7.972L108.626 8.62H104.72V6.316H114.062V8.62H110.156L110.786 7.972V16H107.996ZM119.691 16.144C118.659 16.144 117.741 15.928 116.937 15.496C116.145 15.064 115.515 14.476 115.047 13.732C114.591 12.976 114.363 12.118 114.363 11.158C114.363 10.186 114.591 9.328 115.047 8.584C115.515 7.828 116.145 7.24 116.937 6.82C117.741 6.388 118.659 6.172 119.691 6.172C120.711 6.172 121.623 6.388 122.427 6.82C123.231 7.24 123.861 7.822 124.317 8.566C124.773 9.31 125.001 10.174 125.001 11.158C125.001 12.118 124.773 12.976 124.317 13.732C123.861 14.476 123.231 15.064 122.427 15.496C121.623 15.928 120.711 16.144 119.691 16.144ZM119.691 13.84C120.159 13.84 120.579 13.732 120.951 13.516C121.323 13.3 121.617 12.994 121.833 12.598C122.049 12.19 122.157 11.71 122.157 11.158C122.157 10.594 122.049 10.114 121.833 9.718C121.617 9.322 121.323 9.016 120.951 8.8C120.579 8.584 120.159 8.476 119.691 8.476C119.223 8.476 118.803 8.584 118.431 8.8C118.059 9.016 117.759 9.322 117.531 9.718C117.315 10.114 117.207 10.594 117.207 11.158C117.207 11.71 117.315 12.19 117.531 12.598C117.759 12.994 118.059 13.3 118.431 13.516C118.803 13.732 119.223 13.84 119.691 13.84Z" fill="black"/>
<path d="M82.276 31.076V29.15H87.334V31.076H82.276ZM83.626 25.136C84.682 25.136 85.618 25.352 86.434 25.784C87.25 26.204 87.892 26.792 88.36 27.548C88.828 28.304 89.062 29.174 89.062 30.158C89.062 31.13 88.828 32 88.36 32.768C87.892 33.524 87.25 34.118 86.434 34.55C85.618 34.97 84.682 35.18 83.626 35.18C82.702 35.18 81.862 35.03 81.106 34.73C80.362 34.418 79.744 33.974 79.252 33.398L80.854 31.886C81.214 32.246 81.61 32.528 82.042 32.732C82.486 32.924 82.978 33.02 83.518 33.02C84.106 33.02 84.616 32.9 85.048 32.66C85.492 32.42 85.84 32.084 86.092 31.652C86.344 31.22 86.47 30.722 86.47 30.158C86.47 29.582 86.344 29.078 86.092 28.646C85.84 28.214 85.492 27.878 85.048 27.638C84.616 27.398 84.106 27.278 83.518 27.278C82.978 27.278 82.486 27.38 82.042 27.584C81.61 27.776 81.214 28.058 80.854 28.43L79.252 26.936C79.744 26.348 80.362 25.904 81.106 25.604C81.862 25.292 82.702 25.136 83.626 25.136ZM97.8252 35L94.5852 30.41L96.8712 29.06L101.137 35H97.8252ZM90.9672 35V25.316H93.7752V35H90.9672ZM92.9472 31.328V29.078H96.3312V31.328H92.9472ZM97.1412 30.482L94.5132 30.194L97.9152 25.316H100.903L97.1412 30.482ZM106.825 35.144C105.781 35.144 104.851 34.934 104.035 34.514C103.219 34.082 102.577 33.488 102.109 32.732C101.653 31.976 101.425 31.118 101.425 30.158C101.425 29.186 101.653 28.328 102.109 27.584C102.577 26.828 103.219 26.24 104.035 25.82C104.851 25.388 105.781 25.172 106.825 25.172C107.845 25.172 108.733 25.388 109.489 25.82C110.245 26.24 110.803 26.846 111.163 27.638L108.985 28.808C108.733 28.352 108.415 28.016 108.031 27.8C107.659 27.584 107.251 27.476 106.807 27.476C106.327 27.476 105.895 27.584 105.511 27.8C105.127 28.016 104.821 28.322 104.593 28.718C104.377 29.114 104.269 29.594 104.269 30.158C104.269 30.722 104.377 31.202 104.593 31.598C104.821 31.994 105.127 32.3 105.511 32.516C105.895 32.732 106.327 32.84 106.807 32.84C107.251 32.84 107.659 32.738 108.031 32.534C108.415 32.318 108.733 31.976 108.985 31.508L111.163 32.696C110.803 33.476 110.245 34.082 109.489 34.514C108.733 34.934 107.845 35.144 106.825 35.144ZM112.87 35V25.316H122.5V35H119.692V26.99L120.322 27.62H115.03L115.66 26.99V35H112.87ZM129.926 35.144C128.822 35.144 127.85 34.928 127.01 34.496C126.182 34.064 125.54 33.476 125.084 32.732C124.628 31.976 124.4 31.118 124.4 30.158C124.4 29.186 124.622 28.328 125.066 27.584C125.522 26.828 126.14 26.24 126.92 25.82C127.7 25.388 128.582 25.172 129.566 25.172C130.514 25.172 131.366 25.376 132.122 25.784C132.89 26.18 133.496 26.756 133.94 27.512C134.384 28.256 134.606 29.15 134.606 30.194C134.606 30.302 134.6 30.428 134.588 30.572C134.576 30.704 134.564 30.83 134.552 30.95H126.686V29.312H133.076L131.996 29.798C131.996 29.294 131.894 28.856 131.69 28.484C131.486 28.112 131.204 27.824 130.844 27.62C130.484 27.404 130.064 27.296 129.584 27.296C129.104 27.296 128.678 27.404 128.306 27.62C127.946 27.824 127.664 28.118 127.46 28.502C127.256 28.874 127.154 29.318 127.154 29.834V30.266C127.154 30.794 127.268 31.262 127.496 31.67C127.736 32.066 128.066 32.372 128.486 32.588C128.918 32.792 129.422 32.894 129.998 32.894C130.514 32.894 130.964 32.816 131.348 32.66C131.744 32.504 132.104 32.27 132.428 31.958L133.922 33.578C133.478 34.082 132.92 34.472 132.248 34.748C131.576 35.012 130.802 35.144 129.926 35.144ZM142.464 35.144C141.648 35.144 140.934 34.964 140.322 34.604C139.71 34.244 139.23 33.698 138.882 32.966C138.546 32.222 138.378 31.286 138.378 30.158C138.378 29.018 138.54 28.082 138.864 27.35C139.188 26.618 139.656 26.072 140.268 25.712C140.88 25.352 141.612 25.172 142.464 25.172C143.376 25.172 144.192 25.382 144.912 25.802C145.644 26.21 146.22 26.786 146.64 27.53C147.072 28.274 147.288 29.15 147.288 30.158C147.288 31.178 147.072 32.06 146.64 32.804C146.22 33.548 145.644 34.124 144.912 34.532C144.192 34.94 143.376 35.144 142.464 35.144ZM136.74 38.492V25.316H139.422V27.296L139.368 30.176L139.548 33.038V38.492H136.74ZM141.978 32.84C142.446 32.84 142.86 32.732 143.22 32.516C143.592 32.3 143.886 31.994 144.102 31.598C144.33 31.19 144.444 30.71 144.444 30.158C144.444 29.594 144.33 29.114 144.102 28.718C143.886 28.322 143.592 28.016 143.22 27.8C142.86 27.584 142.446 27.476 141.978 27.476C141.51 27.476 141.09 27.584 140.718 27.8C140.346 28.016 140.052 28.322 139.836 28.718C139.62 29.114 139.512 29.594 139.512 30.158C139.512 30.71 139.62 31.19 139.836 31.598C140.052 31.994 140.346 32.3 140.718 32.516C141.09 32.732 141.51 32.84 141.978 32.84ZM150.975 35V26.972L151.605 27.62H147.699V25.316H157.041V27.62H153.135L153.765 26.972V35H150.975Z" fill="#F07F0E"/>
<path fill-rule="evenodd" clip-rule="evenodd" d="M67.6178 1.45804C46.0596 -0.945166 26.8166 6.3447 24.4585 17.8955C22.7718 26.1572 30.1751 34.3852 42.3862 39.4281C42.4182 39.407 42.4506 39.3858 42.4837 39.3645C34.1984 35.0535 29.4818 29.3831 30.6216 23.8001C32.3006 15.5759 46.1503 10.1737 63.3677 10.2679L67.6178 1.45804Z" fill="#F07F0E"/>
<path fill-rule="evenodd" clip-rule="evenodd" d="M60.9716 15.7127C47.418 14.2017 35.3198 18.7848 33.8373 26.0467C32.7769 31.2408 37.4313 36.4137 45.1083 39.5841C45.1285 39.5708 45.149 39.5574 45.1698 39.5439C39.961 36.8336 36.9958 33.2687 37.7124 29.7587C38.7679 24.5882 47.4752 21.1919 58.2997 21.2512L60.9716 15.7127Z" fill="#F07F0E"/>
<path fill-rule="evenodd" clip-rule="evenodd" d="M57.8055 25.2857C49.398 24.3485 41.8934 27.1915 40.9738 31.6963C40.316 34.9184 43.2034 38.1274 47.966 40.0941L48.004 40.0694C44.7727 38.3881 42.9332 36.1766 43.3777 33.9992C44.0325 30.7919 49.4335 28.6851 56.1479 28.7217L57.8055 25.2857Z" fill="#F07F0E"/>
<path d="M74.7402 0.172363L74.7402 40" stroke="#F07F0E" stroke-width="2.24693"/>
</svg>
