<svg width="145" height="44" viewBox="0 0 145 44" fill="none" xmlns="http://www.w3.org/2000/svg">
<path d="M57.4141 18.1724L63.7141 4.17236H66.2741L72.5941 18.1724H69.8741L64.4541 5.55236H65.4941L60.0941 18.1724H57.4141ZM60.3141 14.9324L61.0141 12.8924H68.5741L69.2741 14.9324H60.3141ZM74.461 18.1724V7.49236H79.681C80.9743 7.49236 81.9877 7.73236 82.721 8.21236C83.4677 8.69236 83.841 9.37236 83.841 10.2524C83.841 11.119 83.4943 11.799 82.801 12.2924C82.1077 12.7724 81.1877 13.0124 80.041 13.0124L80.341 12.3924C81.6343 12.3924 82.5943 12.6324 83.221 13.1124C83.861 13.579 84.181 14.2657 84.181 15.1724C84.181 16.119 83.8277 16.859 83.121 17.3924C82.4143 17.9124 81.341 18.1724 79.901 18.1724H74.461ZM76.841 16.3524H79.701C80.381 16.3524 80.8943 16.2457 81.241 16.0324C81.5877 15.8057 81.761 15.4657 81.761 15.0124C81.761 14.5324 81.601 14.179 81.281 13.9524C80.961 13.7257 80.461 13.6124 79.781 13.6124H76.841V16.3524ZM76.841 11.9524H79.461C80.101 11.9524 80.581 11.839 80.901 11.6124C81.2343 11.3724 81.401 11.039 81.401 10.6124C81.401 10.1724 81.2343 9.8457 80.901 9.63236C80.581 9.41903 80.101 9.31236 79.461 9.31236H76.841V11.9524ZM89.0638 18.1724V9.01236L89.6438 9.61236H85.3038V7.49236H95.3038V9.61236H90.9838L91.5638 9.01236V18.1724H89.0638ZM101.409 18.3124C100.315 18.3124 99.3418 18.079 98.4885 17.6124C97.6352 17.1324 96.9618 16.479 96.4685 15.6524C95.9752 14.8257 95.7285 13.8857 95.7285 12.8324C95.7285 11.7657 95.9752 10.8257 96.4685 10.0124C96.9618 9.1857 97.6352 8.53903 98.4885 8.07236C99.3418 7.6057 100.315 7.37236 101.409 7.37236C102.515 7.37236 103.495 7.6057 104.349 8.07236C105.215 8.53903 105.889 9.17903 106.369 9.99236C106.862 10.8057 107.109 11.7524 107.109 12.8324C107.109 13.8857 106.862 14.8257 106.369 15.6524C105.889 16.479 105.215 17.1324 104.349 17.6124C103.495 18.079 102.515 18.3124 101.409 18.3124ZM101.409 16.1724C102.022 16.1724 102.569 16.039 103.049 15.7724C103.529 15.5057 103.902 15.119 104.169 14.6124C104.449 14.1057 104.589 13.5124 104.589 12.8324C104.589 12.139 104.449 11.5457 104.169 11.0524C103.902 10.5457 103.529 10.159 103.049 9.89236C102.569 9.6257 102.029 9.49236 101.429 9.49236C100.815 9.49236 100.269 9.6257 99.7885 9.89236C99.3218 10.159 98.9485 10.5457 98.6685 11.0524C98.3885 11.5457 98.2485 12.139 98.2485 12.8324C98.2485 13.5124 98.3885 14.1057 98.6685 14.6124C98.9485 15.119 99.3218 15.5057 99.7885 15.7724C100.269 16.039 100.809 16.1724 101.409 16.1724Z" fill="black"/>
<path d="M60.7741 34.6724V32.8724H66.5741V34.6724H60.7741ZM62.2341 28.3324C63.3808 28.3324 64.3941 28.5724 65.2741 29.0524C66.1541 29.519 66.8475 30.1657 67.3541 30.9924C67.8608 31.8057 68.1141 32.7524 68.1141 33.8324C68.1141 34.899 67.8608 35.8524 67.3541 36.6924C66.8475 37.519 66.1541 38.1724 65.2741 38.6524C64.3941 39.119 63.3808 39.3524 62.2341 39.3524C61.2741 39.3524 60.3941 39.1924 59.5941 38.8724C58.7941 38.5524 58.1275 38.0924 57.5941 37.4924L59.0341 36.0924C59.4608 36.5057 59.9275 36.819 60.4341 37.0324C60.9541 37.2457 61.5208 37.3524 62.1341 37.3524C62.8541 37.3524 63.4875 37.2057 64.0341 36.9124C64.5808 36.6057 65.0141 36.1857 65.3341 35.6524C65.6541 35.119 65.8141 34.5124 65.8141 33.8324C65.8141 33.139 65.6541 32.5324 65.3341 32.0124C65.0141 31.479 64.5808 31.0657 64.0341 30.7724C63.4875 30.4657 62.8541 30.3124 62.1341 30.3124C61.5208 30.3124 60.9541 30.419 60.4341 30.6324C59.9275 30.8457 59.4608 31.1657 59.0341 31.5924L57.5941 30.1924C58.1275 29.5924 58.7941 29.1324 59.5941 28.8124C60.3941 28.4924 61.2741 28.3324 62.2341 28.3324ZM78.1952 39.1724L74.3352 34.0524L76.3752 32.7924L81.1352 39.1724H78.1952ZM70.5352 39.1724V28.4924H73.0352V39.1724H70.5352ZM72.2952 34.8924V32.8124H75.9152V34.8924H72.2952ZM76.6152 34.1324L74.2752 33.8524L78.1952 28.4924H80.8752L76.6152 34.1324ZM87.4069 39.3124C86.2869 39.3124 85.2869 39.079 84.4069 38.6124C83.5403 38.1324 82.8603 37.479 82.3669 36.6524C81.8736 35.8257 81.6269 34.8857 81.6269 33.8324C81.6269 32.7657 81.8736 31.8257 82.3669 31.0124C82.8603 30.1857 83.5403 29.539 84.4069 29.0724C85.2869 28.6057 86.2869 28.3724 87.4069 28.3724C88.4469 28.3724 89.3603 28.5857 90.1469 29.0124C90.9469 29.4257 91.5536 30.039 91.9669 30.8524L90.0469 31.9724C89.7269 31.4657 89.3336 31.0924 88.8669 30.8524C88.4136 30.6124 87.9203 30.4924 87.3869 30.4924C86.7736 30.4924 86.2203 30.6257 85.7269 30.8924C85.2336 31.159 84.8469 31.5457 84.5669 32.0524C84.2869 32.5457 84.1469 33.139 84.1469 33.8324C84.1469 34.5257 84.2869 35.1257 84.5669 35.6324C84.8469 36.1257 85.2336 36.5057 85.7269 36.7724C86.2203 37.039 86.7736 37.1724 87.3869 37.1724C87.9203 37.1724 88.4136 37.0524 88.8669 36.8124C89.3336 36.5724 89.7269 36.199 90.0469 35.6924L91.9669 36.8124C91.5536 37.6124 90.9469 38.2324 90.1469 38.6724C89.3603 39.099 88.4469 39.3124 87.4069 39.3124ZM94.168 39.1724V28.4924H104.408V39.1724H101.928V30.0324L102.508 30.6124H96.088L96.668 30.0324V39.1724H94.168ZM112.761 39.3124C111.575 39.3124 110.535 39.079 109.641 38.6124C108.761 38.1324 108.075 37.479 107.581 36.6524C107.101 35.8257 106.861 34.8857 106.861 33.8324C106.861 32.7657 107.095 31.8257 107.561 31.0124C108.041 30.1857 108.695 29.539 109.521 29.0724C110.361 28.6057 111.315 28.3724 112.381 28.3724C113.421 28.3724 114.348 28.599 115.161 29.0524C115.975 29.5057 116.615 30.1457 117.081 30.9724C117.548 31.799 117.781 32.7724 117.781 33.8924C117.781 33.999 117.775 34.119 117.761 34.2524C117.761 34.3857 117.755 34.5124 117.741 34.6324H108.841V32.9724H116.421L115.441 33.4924C115.455 32.879 115.328 32.339 115.061 31.8724C114.795 31.4057 114.428 31.039 113.961 30.7724C113.508 30.5057 112.981 30.3724 112.381 30.3724C111.768 30.3724 111.228 30.5057 110.761 30.7724C110.308 31.039 109.948 31.4124 109.681 31.8924C109.428 32.359 109.301 32.9124 109.301 33.5524V33.9524C109.301 34.5924 109.448 35.159 109.741 35.6524C110.035 36.1457 110.448 36.5257 110.981 36.7924C111.515 37.059 112.128 37.1924 112.821 37.1924C113.421 37.1924 113.961 37.099 114.441 36.9124C114.921 36.7257 115.348 36.4324 115.721 36.0324L117.061 37.5724C116.581 38.1324 115.975 38.5657 115.241 38.8724C114.521 39.1657 113.695 39.3124 112.761 39.3124ZM126.436 39.3124C125.569 39.3124 124.776 39.1124 124.056 38.7124C123.349 38.3124 122.782 37.7124 122.356 36.9124C121.942 36.099 121.736 35.0724 121.736 33.8324C121.736 32.579 121.936 31.5524 122.336 30.7524C122.749 29.9524 123.309 29.359 124.016 28.9724C124.722 28.5724 125.529 28.3724 126.436 28.3724C127.489 28.3724 128.416 28.599 129.216 29.0524C130.029 29.5057 130.669 30.139 131.136 30.9524C131.616 31.7657 131.856 32.7257 131.856 33.8324C131.856 34.939 131.616 35.9057 131.136 36.7324C130.669 37.5457 130.029 38.179 129.216 38.6324C128.416 39.0857 127.489 39.3124 126.436 39.3124ZM120.516 43.0524V28.4924H122.896V31.0124L122.816 33.8524L123.016 36.6924V43.0524H120.516ZM126.156 37.1724C126.756 37.1724 127.289 37.039 127.756 36.7724C128.236 36.5057 128.616 36.119 128.896 35.6124C129.176 35.1057 129.316 34.5124 129.316 33.8324C129.316 33.139 129.176 32.5457 128.896 32.0524C128.616 31.5457 128.236 31.159 127.756 30.8924C127.289 30.6257 126.756 30.4924 126.156 30.4924C125.556 30.4924 125.016 30.6257 124.536 30.8924C124.056 31.159 123.676 31.5457 123.396 32.0524C123.116 32.5457 122.976 33.139 122.976 33.8324C122.976 34.5124 123.116 35.1057 123.396 35.6124C123.676 36.119 124.056 36.5057 124.536 36.7724C125.016 37.039 125.556 37.1724 126.156 37.1724ZM136.173 39.1724V30.0124L136.753 30.6124H132.413V28.4924H142.413V30.6124H138.093L138.673 30.0124V39.1724H136.173Z" fill="#F07F0E"/>
<path fill-rule="evenodd" clip-rule="evenodd" d="M47.8382 0.504671C24.0741 -2.14452 2.86204 5.89124 0.262635 18.6239C-1.59659 27.731 6.56423 36.8009 20.0249 42.3598L20.0954 42.3136L20.1324 42.2896C10.9993 37.5376 5.80012 31.2869 7.05653 25.1326C8.90731 16.0669 24.1741 10.1119 43.1532 10.2159L47.8382 0.504671Z" fill="#F07F0E"/>
<path fill-rule="evenodd" clip-rule="evenodd" d="M40.5114 16.2182C25.5712 14.5527 12.2354 19.6047 10.6012 27.6096C9.43228 33.3351 14.5628 39.0373 23.0253 42.5321C23.0475 42.5174 23.0701 42.5027 23.093 42.4879C17.3512 39.5003 14.0826 35.5706 14.8725 31.7014C16.036 26.0019 25.6341 22.2581 37.5661 22.3234L40.5114 16.2182Z" fill="#F07F0E"/>
<path fill-rule="evenodd" clip-rule="evenodd" d="M37.0218 26.7706C27.7539 25.7374 19.4813 28.8713 18.4675 33.837C17.7424 37.3887 20.9252 40.926 26.1749 43.0939L26.2167 43.0667C22.6548 41.2134 20.6272 38.7757 21.1172 36.3755C21.839 32.84 27.7929 30.5176 35.1946 30.5581L37.0218 26.7706Z" fill="#F07F0E"/>
<line x1="52.7403" y1="0.172363" x2="52.7403" y2="42.864" stroke="#F07F0E" stroke-width="2.24693"/>
</svg>
