<svg width="39" height="35" viewBox="0 0 39 35" fill="none" xmlns="http://www.w3.org/2000/svg">
<path fill-rule="evenodd" clip-rule="evenodd" d="M37.2537 2.17738C19.8927 0.279317 4.38225 6.14731 2.46106 15.4125C1.08625 22.0428 7.03875 28.636 16.8723 32.668C16.8995 32.6499 16.9273 32.6318 16.9555 32.6136C10.2873 29.1636 6.49755 24.6191 7.4265 20.1385C8.79427 13.5413 19.9544 9.19253 33.8197 9.244L37.2537 2.17738Z" fill="#F07F0E"/>
<path fill-rule="evenodd" clip-rule="evenodd" d="M31.886 13.6051C20.9713 12.4118 11.22 16.101 10.0122 21.926C9.14783 26.0943 12.89 30.2394 19.0721 32.7742C19.0893 32.7629 19.1068 32.7515 19.1245 32.74C14.9324 30.571 12.5499 27.714 13.1339 24.8971C13.9938 20.7495 21.0101 18.0154 29.7271 18.0478L31.886 13.6051Z" fill="#F07F0E"/>
<path fill-rule="evenodd" clip-rule="evenodd" d="M29.3281 21.2793C22.5575 20.5391 16.5085 22.8276 15.7592 26.441C15.223 29.0268 17.5445 31.5982 21.3797 33.1706L21.4119 33.1496C18.8114 31.8041 17.3335 30.0318 17.6958 28.2844C18.2292 25.7115 22.5815 24.0156 27.9887 24.0356L29.3281 21.2793Z" fill="#F07F0E"/>
</svg>
